<svg xmlns="http://www.w3.org/2000/svg" xmlns:xlink="http://www.w3.org/1999/xlink" width="150" zoomAndPan="magnify" viewBox="0 0 112.5 112.499997" height="150" preserveAspectRatio="xMidYMid meet" version="1.0"><defs><clipPath id="b71608b2b8"><path d="M 39 17 L 73 17 L 73 95.203125 L 39 95.203125 Z M 39 17 " clip-rule="nonzero"/></clipPath></defs><path fill="#ff003b" d="M 28.394531 84.160156 C 26.738281 84.160156 25.632812 83.605469 24.53125 82.503906 L 2.445312 60.417969 C 0.238281 58.210938 0.238281 54.898438 2.445312 52.6875 L 24.53125 30.601562 C 26.738281 28.394531 30.050781 28.394531 32.261719 30.601562 C 34.46875 32.8125 34.46875 36.125 32.261719 38.332031 L 14.039062 56.554688 L 32.261719 74.773438 C 34.46875 76.980469 34.46875 80.292969 32.261719 82.503906 C 31.15625 83.605469 30.050781 84.160156 28.394531 84.160156 Z M 28.394531 84.160156 " fill-opacity="1" fill-rule="nonzero"/><path fill="#ff003b" d="M 83.605469 84.160156 C 81.949219 84.160156 80.847656 83.605469 79.742188 82.503906 C 77.535156 80.292969 77.535156 76.980469 79.742188 74.773438 L 97.960938 56.554688 L 79.742188 38.332031 C 77.535156 36.125 77.535156 32.8125 79.742188 30.601562 C 81.949219 28.394531 85.261719 28.394531 87.472656 30.601562 L 109.558594 52.6875 C 111.765625 54.898438 111.765625 58.210938 109.558594 60.417969 L 87.472656 82.503906 C 86.367188 83.605469 85.261719 84.160156 83.605469 84.160156 Z M 83.605469 84.160156 " fill-opacity="1" fill-rule="nonzero"/><g clip-path="url(#b71608b2b8)"><path fill="#ff003b" d="M 44.957031 95.203125 C 44.40625 95.203125 43.855469 95.203125 43.300781 94.648438 C 40.542969 93.546875 38.886719 90.785156 39.988281 87.472656 L 62.074219 21.21875 C 63.179688 18.457031 65.9375 16.800781 69.253906 17.90625 C 72.011719 19.007812 73.667969 21.769531 72.566406 25.082031 L 50.480469 91.335938 C 49.375 93.546875 47.167969 95.203125 44.957031 95.203125 Z M 44.957031 95.203125 " fill-opacity="1" fill-rule="nonzero"/></g></svg>